<svg width="252" height="232" viewBox="0 0 252 232" fill="none" xmlns="http://www.w3.org/2000/svg">
<path d="M38 0C84.5333 0 123.107 34.0533 130.173 78.6C145.84 62.9867 167.467 53.3333 191.333 53.3333H251.333V86.6667C251.333 134.533 212.533 173.333 164.667 173.333H131.333V240H104.667V133.333H78C26.4533 133.333 -15.3333 91.5467 -15.3333 40V0H38ZM224.667 80H191.333C158.2 80 131.333 106.867 131.333 140V146.667H164.667C197.8 146.667 224.667 119.8 224.667 86.6667V80ZM38 26.6667H11.3333V40C11.3333 76.8133 41.1867 106.667 78 106.667H104.667V93.3333C104.667 56.52 74.8133 26.6667 38 26.6667Z" fill="#51B774"/>
</svg>
