<svg width="300" height="268" viewBox="0 0 300 268" fill="none" xmlns="http://www.w3.org/2000/svg">
<path d="M195.173 349.312C186.626 349.385 177.496 348.413 167.78 346.295C143.602 341.028 132.28 325.484 126.728 306.784C134.909 290.085 141.41 273.175 144.99 254.256C137.977 259.296 130.599 255.498 128.481 250.603C125.34 266.966 121.176 281.941 115.479 296.572C79.8319 322.051 54.8499 311.839 50.0288 310.275C-11.7397 290.326 -29.344 240.961 -18.8983 187.345C-4.7856 219.047 44.3311 237.528 64.0538 237.455C69.094 237.382 98.3858 230.516 73.9882 222.846C33.9585 210.209 2.19037 187.272 -11.3379 160.025C-4.92439 142.129 4.2503 124.159 15.6091 107.139C26.1424 137.819 44.9885 172.151 86.26 198.521C96.8518 205.314 103.645 198.01 95.1717 188.879C56.0917 146.95 40.3135 112.764 36.0038 80.3312C48.7139 65.5027 63.1772 51.916 78.7362 40.3746C79.9049 80.1121 93.5647 126.351 119.862 160.61C122.564 165.431 135.932 162.582 131.257 154.036C110.877 116.855 99.7006 66.4523 98.751 26.934C117.451 15.8308 137.393 7.72263 157.846 3.63202C146.816 29.3445 144.332 62.4348 152.806 91.8727C156.531 104.875 167.999 97.7894 165.662 88.8047C158.357 60.4625 171.944 24.8886 186.188 0.710144C201.309 0.637085 216.576 2.97458 231.696 8.16092C240.316 11.0828 248.278 17.1457 255.583 25.5461C247.328 42.2007 235.86 57.7597 221.543 67.3289C216.137 70.9812 219.205 84.5679 228.994 78.1398C242.946 68.9359 256.459 56.4449 267.562 42.566C274.721 54.8379 280.857 69.5934 285.824 85.9558C264.129 111.303 224.976 145.854 191.74 160.245C184.727 163.239 185.385 175.95 197.291 172.224C232.208 161.413 268.877 138.477 293.056 115.248C295.905 129.784 297.95 145.051 298.973 160.464C270.484 180.625 229.213 209.551 191.521 215.103C184.581 216.125 181.586 228.689 193.712 228.105C236.298 226.133 273.917 210.939 299.703 191.216C299.338 212.108 297.073 232.634 292.617 251.772C262.157 261.707 209.709 265.286 189.256 256.228C181.148 252.649 167.415 259.734 184.289 268.354C211.755 284.497 253.318 285.009 285.313 276.389C269.754 318.734 240.973 348.939 195.173 349.312Z" fill="white"/>
</svg>
