<svg width="174" height="174" viewBox="0 0 174 174" fill="none" xmlns="http://www.w3.org/2000/svg">
<path d="M73 201.833C17.3098 201.833 -27.8333 156.69 -27.8333 101C-27.8333 45.3097 17.3098 0.166626 73 0.166626C128.69 0.166626 173.833 45.3097 173.833 101C173.833 156.69 128.69 201.833 73 201.833ZM73 181.667C94.3941 181.667 114.912 173.168 130.04 158.04C145.168 142.912 153.667 122.394 153.667 101C153.667 79.6058 145.168 59.0879 130.04 43.96C114.912 28.8321 94.3941 20.3333 73 20.3333C51.6059 20.3333 31.088 28.8321 15.9601 43.96C0.832139 59.0879 -7.66665 79.6058 -7.66665 101C-7.66665 122.394 0.832139 142.912 15.9601 158.04C31.088 173.168 51.6059 181.667 73 181.667V181.667ZM83.0834 101H123.417V121.167H62.9167V50.5833H83.0834V101Z" fill="#51B774"/>
</svg>
