<svg width="16" height="17" viewBox="0 0 16 17" fill="none" xmlns="http://www.w3.org/2000/svg">
<g clip-path="url(#clip0_2302_118)">
<path d="M10 1.83326C10.4682 1.8332 10.9282 1.95641 11.3336 2.1905C11.7391 2.42459 12.0758 2.7613 12.3099 3.16679C12.5439 3.57227 12.6671 4.03223 12.667 4.50042C12.6669 4.96861 12.5436 5.42853 12.3094 5.83392L15.3334 5.83326V7.16659H14V13.8333C14 14.0101 13.9298 14.1796 13.8048 14.3047C13.6797 14.4297 13.5102 14.4999 13.3334 14.4999H2.66669C2.48988 14.4999 2.32031 14.4297 2.19528 14.3047C2.07026 14.1796 2.00002 14.0101 2.00002 13.8333V7.16659H0.666687V5.83326L3.69069 5.83392C3.35993 5.26118 3.25381 4.58596 3.39294 3.93937C3.53207 3.29278 3.90652 2.72097 4.44358 2.33496C4.98063 1.94895 5.64197 1.77629 6.29919 1.85051C6.9564 1.92473 7.56258 2.24053 8.00002 2.73659C8.24975 2.45218 8.55739 2.22444 8.90233 2.06864C9.24727 1.91284 9.62153 1.83259 10 1.83326ZM7.33335 7.16659H3.33335V13.1666H7.33335V7.16659ZM12.6667 7.16659H8.66669V13.1666H12.6667V7.16659ZM6.00002 3.16659C5.65403 3.16504 5.32099 3.29805 5.07125 3.53751C4.82151 3.77697 4.67464 4.10413 4.66166 4.44988C4.64868 4.79563 4.7706 5.13289 5.00168 5.3904C5.23276 5.64792 5.55489 5.80552 5.90002 5.82992L6.00002 5.83326H7.33335V4.49992C7.33337 4.1813 7.21928 3.8732 7.01175 3.63143C6.80422 3.38966 6.51697 3.23019 6.20202 3.18192L6.09935 3.16992L6.00002 3.16659ZM10 3.16659C9.66364 3.16648 9.33964 3.29353 9.09299 3.52225C8.84633 3.75098 8.69525 4.06449 8.67002 4.39992L8.66669 4.49992V5.83326H10C10.3364 5.83336 10.6604 5.70632 10.9071 5.47759C11.1537 5.24886 11.3048 4.93536 11.33 4.59992L11.3334 4.49992C11.3334 4.1463 11.1929 3.80716 10.9428 3.55711C10.6928 3.30707 10.3536 3.16659 10 3.16659Z" fill="white"/>
</g>
<defs>
<clipPath id="clip0_2302_118">
<rect width="16" height="16" fill="white" transform="translate(0 0.5)"/>
</clipPath>
</defs>
</svg>
