<svg width="33" height="32" viewBox="0 0 33 32" fill="none" xmlns="http://www.w3.org/2000/svg">
<g clip-path="url(#clip0_2579_19581)">
<path d="M16.5001 2.66663C18.6218 2.66663 20.6566 3.50948 22.1569 5.00977C23.6572 6.51006 24.5001 8.54489 24.5001 10.6666V12H29.8334V14.6666H28.2774L27.2681 26.7773C27.2403 27.1105 27.0884 27.4211 26.8425 27.6475C26.5965 27.874 26.2744 27.9998 25.9401 28H7.06008C6.72574 27.9998 6.40368 27.874 6.15771 27.6475C5.91174 27.4211 5.75983 27.1105 5.73208 26.7773L4.72141 14.6666H3.16675V12H8.50008V10.6666C8.50008 8.54489 9.34294 6.51006 10.8432 5.00977C12.3435 3.50948 14.3783 2.66663 16.5001 2.66663V2.66663ZM25.6014 14.6666H7.39741L8.28675 25.3333H24.7121L25.6014 14.6666ZM17.8334 17.3333V22.6666H15.1667V17.3333H17.8334ZM12.5001 17.3333V22.6666H9.83341V17.3333H12.5001ZM23.1667 17.3333V22.6666H20.5001V17.3333H23.1667ZM16.5001 5.33329C15.1318 5.33329 13.8158 5.85921 12.8243 6.80226C11.8329 7.74531 11.2418 9.03335 11.1734 10.4L11.1667 10.6666V12H21.8334V10.6666C21.8334 9.2983 21.3075 7.98232 20.3645 6.99088C19.4214 5.99943 18.1334 5.40838 16.7667 5.33996L16.5001 5.33329Z" fill="#242427"/>
</g>
<defs>
<clipPath id="clip0_2579_19581">
<rect width="32" height="32" fill="white" transform="translate(0.5)"/>
</clipPath>
</defs>
</svg>
