<svg width="20" height="20" viewBox="0 0 20 20" fill="none" xmlns="http://www.w3.org/2000/svg">
<g clip-path="url(#clip0_6405_2413)">
<path d="M10.0001 18.3337C5.39758 18.3337 1.66675 14.6028 1.66675 10.0003C1.66675 5.39783 5.39758 1.66699 10.0001 1.66699C14.6026 1.66699 18.3334 5.39783 18.3334 10.0003C18.3334 14.6028 14.6026 18.3337 10.0001 18.3337ZM5.84425 15.2137C7.02387 16.1567 8.48981 16.6694 10.0001 16.667C11.6417 16.667 13.1442 16.0737 14.3059 15.0903C13.7632 14.5334 13.1143 14.0911 12.3976 13.7893C11.6809 13.4876 10.911 13.3327 10.1334 13.3337C9.32724 13.3327 8.52967 13.4994 7.7913 13.823C7.05294 14.1466 6.3899 14.6202 5.84425 15.2137ZM4.68008 14.017C5.38046 13.2737 6.22564 12.6818 7.16353 12.2776C8.10142 11.8734 9.11215 11.6656 10.1334 11.667C11.1181 11.6657 12.0934 11.859 13.0032 12.2356C13.913 12.6123 14.7395 13.165 15.4351 13.862C16.1485 12.8579 16.5698 11.6759 16.6522 10.4469C16.7347 9.21798 16.475 7.99023 15.9022 6.89987C15.3293 5.80951 14.4655 4.89918 13.4067 4.26986C12.3479 3.64055 11.1355 3.31686 9.90392 3.3347C8.67235 3.35255 7.4698 3.71123 6.42968 4.37096C5.38956 5.03068 4.55255 5.96566 4.01149 7.07216C3.47043 8.17866 3.24649 9.41342 3.36451 10.6395C3.48253 11.8655 3.93789 13.0349 4.68008 14.0178V14.017ZM10.0001 10.8337C9.11603 10.8337 8.26818 10.4825 7.64306 9.85735C7.01794 9.23223 6.66675 8.38438 6.66675 7.50033C6.66675 6.61627 7.01794 5.76842 7.64306 5.1433C8.26818 4.51818 9.11603 4.16699 10.0001 4.16699C10.8841 4.16699 11.732 4.51818 12.3571 5.1433C12.9822 5.76842 13.3334 6.61627 13.3334 7.50033C13.3334 8.38438 12.9822 9.23223 12.3571 9.85735C11.732 10.4825 10.8841 10.8337 10.0001 10.8337ZM10.0001 9.16699C10.4421 9.16699 10.866 8.9914 11.1786 8.67884C11.4912 8.36628 11.6667 7.94235 11.6667 7.50033C11.6667 7.0583 11.4912 6.63438 11.1786 6.32181C10.866 6.00925 10.4421 5.83366 10.0001 5.83366C9.55805 5.83366 9.13413 6.00925 8.82157 6.32181C8.50901 6.63438 8.33342 7.0583 8.33342 7.50033C8.33342 7.94235 8.50901 8.36628 8.82157 8.67884C9.13413 8.9914 9.55805 9.16699 10.0001 9.16699Z" fill="#242427"/>
</g>
<defs>
<clipPath id="clip0_6405_2413">
<rect width="20" height="20" fill="white"/>
</clipPath>
</defs>
</svg>
