<svg width="20" height="20" viewBox="0 0 20 20" fill="none" xmlns="http://www.w3.org/2000/svg">
<g clip-path="url(#clip0_6405_2407)">
<path d="M15.0001 14.167V18.3337H13.3334V14.167C13.3334 10.4578 15.5367 7.26283 18.7059 5.82033L19.3959 7.33699C18.0848 7.93331 16.9732 8.89445 16.1937 10.1056C15.4142 11.3167 14.9998 12.7267 15.0001 14.167ZM6.66675 14.167V18.3337H5.00008V14.167C5.0002 12.7268 4.58577 11.3171 3.80628 10.1061C3.02679 8.89509 1.91519 7.93408 0.604248 7.33783L1.29425 5.82033C2.89649 6.54907 4.25508 7.72362 5.20777 9.2037C6.16045 10.6838 6.66694 12.4068 6.66675 14.167ZM10.0001 10.0003C8.89501 10.0003 7.8352 9.56134 7.0538 8.77994C6.2724 7.99854 5.83341 6.93873 5.83341 5.83366C5.83341 4.72859 6.2724 3.66878 7.0538 2.88738C7.8352 2.10598 8.89501 1.66699 10.0001 1.66699C11.1051 1.66699 12.165 2.10598 12.9464 2.88738C13.7278 3.66878 14.1667 4.72859 14.1667 5.83366C14.1667 6.93873 13.7278 7.99854 12.9464 8.77994C12.165 9.56134 11.1051 10.0003 10.0001 10.0003ZM10.0001 8.33366C10.3284 8.33366 10.6535 8.26899 10.9568 8.14336C11.2601 8.01772 11.5357 7.83357 11.7678 7.60143C12 7.36928 12.1841 7.09368 12.3098 6.79037C12.4354 6.48705 12.5001 6.16196 12.5001 5.83366C12.5001 5.50535 12.4354 5.18026 12.3098 4.87695C12.1841 4.57364 12 4.29804 11.7678 4.06589C11.5357 3.83375 11.2601 3.6496 10.9568 3.52396C10.6535 3.39832 10.3284 3.33366 10.0001 3.33366C9.33704 3.33366 8.70115 3.59705 8.23231 4.06589C7.76347 4.53473 7.50008 5.17062 7.50008 5.83366C7.50008 6.4967 7.76347 7.13259 8.23231 7.60143C8.70115 8.07027 9.33704 8.33366 10.0001 8.33366Z" fill="#242427"/>
</g>
<defs>
<clipPath id="clip0_6405_2407">
<rect width="20" height="20" fill="white"/>
</clipPath>
</defs>
</svg>
