<svg width="63" height="85" viewBox="0 0 63 85" fill="none" xmlns="http://www.w3.org/2000/svg">
<path d="M0.727051 31.2992C0.727051 13.1439 14.5655 0 31.6361 0C48.7068 0 62.5452 13.1439 62.5452 31.2992C62.5452 47.0558 39.2643 75.9107 33.1123 83.2605C32.3324 84.1922 30.9398 84.1922 30.16 83.2605C24.008 75.9107 0.727051 47.0558 0.727051 31.2992Z" fill="#51B774"/>
<circle cx="31.6358" cy="29.3639" r="20.0909" fill="white"/>
<g clip-path="url(#clip0_83_284)">
<path d="M42.0675 18.9321V21.2503C42.0675 32.4089 35.8397 37.4776 28.1584 37.4776H23.8037C23.6148 38.5347 23.522 39.688 23.522 40.9549H21.2039C21.2039 39.375 21.3383 37.9412 21.6049 36.6291C21.3383 35.1293 21.2039 33.0939 21.2039 30.523C21.2039 24.1214 26.3931 18.9321 32.7948 18.9321C35.1129 18.9321 37.4311 20.0912 42.0675 18.9321ZM32.7948 21.2503C27.6739 21.2503 23.522 25.4022 23.522 30.523C23.522 30.9426 23.5255 31.3472 23.5336 31.7354C24.9871 29.4428 27.1164 27.6311 29.9017 26.0397L31.0515 28.0519C27.7423 29.9435 25.547 32.0924 24.4215 35.1594H28.1584C35.1303 35.1594 39.5998 30.5543 39.7458 21.7C38.1556 21.8542 36.6777 21.7557 34.8545 21.4821C33.5215 21.2816 33.2596 21.2503 32.7948 21.2503Z" fill="#51B774"/>
</g>
<defs>
<clipPath id="clip0_83_284">
<rect width="27.8182" height="27.8182" fill="white" transform="translate(17.7266 15.4551)"/>
</clipPath>
</defs>
</svg>
