<svg width="96" height="96" viewBox="0 0 96 96" fill="none" xmlns="http://www.w3.org/2000/svg">
<g id="Group">
<path id="Vector" d="M20 35.9998C21.0609 35.9998 22.0783 36.4213 22.8284 37.1714C23.5786 37.9215 24 38.939 24 39.9998C30.2846 39.9906 36.3879 42.1049 41.32 45.9998H50C55.328 45.9998 60.12 48.3158 63.412 51.9958L76 51.9998C79.781 51.9988 83.4849 53.0696 86.6821 55.088C89.8793 57.1064 92.4389 59.9898 94.064 63.4038C84.604 75.8878 69.288 83.9998 52 83.9998C40.84 83.9998 31.4 81.5878 23.76 77.3678C23.4802 78.1401 22.969 78.8072 22.2961 79.2782C21.6232 79.7492 20.8214 80.0012 20 79.9998H8C6.93913 79.9998 5.92172 79.5784 5.17157 78.8283C4.42143 78.0781 4 77.0607 4 75.9998V39.9998C4 38.939 4.42143 37.9215 5.17157 37.1714C5.92172 36.4213 6.93913 35.9998 8 35.9998H20ZM24.004 47.9998L24 68.0838L24.18 68.2158C31.36 73.2558 40.712 75.9998 52 75.9998C64.016 75.9998 75.196 71.3758 83.34 63.4798L83.872 62.9478L83.392 62.5478C81.5032 61.0685 79.2136 60.1906 76.82 60.0278L76 59.9998L67.552 59.9958C67.844 61.2838 68 62.6238 68 63.9998V67.9998H32V59.9998L59.16 59.9958L59.024 59.6838C58.2574 58.082 57.0783 56.7131 55.6077 55.7177C54.1371 54.7223 52.428 54.1363 50.656 54.0198L50 53.9998H38.28C36.4213 52.0987 34.2011 50.5886 31.7501 49.5581C29.2991 48.5277 26.6668 47.9979 24.008 47.9998H24.004ZM16 43.9998H12V71.9998H16V43.9998ZM54.584 14.2998L56 15.7198L57.416 14.3038C58.3432 13.3687 59.446 12.6259 60.6611 12.1181C61.8762 11.6104 63.1796 11.3476 64.4965 11.3449C65.8134 11.3422 67.1178 11.5996 68.335 12.1024C69.5521 12.6052 70.658 13.3435 71.589 14.2748C72.5201 15.2061 73.258 16.3122 73.7605 17.5295C74.2629 18.7467 74.52 20.0513 74.5169 21.3682C74.5139 22.6851 74.2507 23.9884 73.7426 25.2033C73.2345 26.4182 72.4914 27.5208 71.556 28.4478L56 43.9998L40.44 28.4398C39.5049 27.5126 38.7621 26.4098 38.2543 25.1947C37.7466 23.9796 37.4838 22.6762 37.4811 21.3593C37.4784 20.0424 37.7358 18.738 38.2386 17.5208C38.7414 16.3037 39.4797 15.1979 40.411 14.2668C41.3423 13.3357 42.4484 12.5978 43.6656 12.0953C44.8829 11.5929 46.1875 11.3358 47.5044 11.3389C48.8213 11.342 50.1246 11.6051 51.3395 12.1132C52.5544 12.6214 53.657 13.3644 54.584 14.2998ZM46.104 19.9598C45.7725 20.2895 45.5669 20.7249 45.5231 21.1904C45.4792 21.6559 45.5999 22.122 45.864 22.5078L46.096 22.7838L56 32.6798L65.904 22.7838C66.2353 22.4529 66.44 22.0162 66.4824 21.5499C66.5248 21.0835 66.4022 20.6171 66.136 20.2318L65.904 19.9518C65.5726 19.6211 65.1356 19.4172 64.6693 19.3755C64.203 19.3338 63.7368 19.4571 63.352 19.7238L63.072 19.9558L55.996 27.0278L48.928 19.9478L48.656 19.7238C48.2708 19.4576 47.8043 19.335 47.338 19.3774C46.8716 19.4198 46.4349 19.6245 46.104 19.9558V19.9598Z" fill="#51B774"/>
</g>
</svg>
