<svg width="96" height="96" viewBox="0 0 96 96" fill="none" xmlns="http://www.w3.org/2000/svg">
<g id="Group">
<path id="Vector" d="M80 80.0002C80 81.061 79.5786 82.0785 78.8284 82.8286C78.0783 83.5787 77.0609 84.0002 76 84.0002H20C18.9391 84.0002 17.9217 83.5787 17.1716 82.8286C16.4214 82.0785 16 81.061 16 80.0002V44.0002H4L45.308 6.44817C46.0444 5.77808 47.0043 5.40674 48 5.40674C48.9957 5.40674 49.9556 5.77808 50.692 6.44817L92 44.0002H80V80.0002ZM72 76.0002V36.6282L48 14.8122L24 36.6282V76.0002H72ZM48 68.0002L34.564 54.5642C33.7283 53.7284 33.0653 52.7363 32.613 51.6443C32.1607 50.5524 31.9279 49.3821 31.9279 48.2002C31.9279 47.0183 32.1607 45.8479 32.613 44.756C33.0653 43.6641 33.7283 42.6719 34.564 41.8362C35.3997 41.0004 36.3919 40.3375 37.4838 39.8852C38.5758 39.4329 39.7461 39.2001 40.928 39.2001C42.1099 39.2001 43.2802 39.4329 44.3722 39.8852C45.4641 40.3375 46.4563 41.0004 47.292 41.8362L48 42.5442L48.708 41.8362C49.5437 41.0004 50.5359 40.3375 51.6278 39.8852C52.7198 39.4329 53.8901 39.2001 55.072 39.2001C56.2539 39.2001 57.4242 39.4329 58.5162 39.8852C59.6081 40.3375 60.6003 41.0004 61.436 41.8362C62.2717 42.6719 62.9347 43.6641 63.387 44.756C63.8393 45.8479 64.0721 47.0183 64.0721 48.2002C64.0721 49.3821 63.8393 50.5524 63.387 51.6443C62.9347 52.7363 62.2717 53.7284 61.436 54.5642L48 68.0002Z" fill="#51B774"/>
</g>
</svg>
