<svg width="96" height="96" viewBox="0 0 96 96" fill="none" xmlns="http://www.w3.org/2000/svg">
<g id="Group">
<path id="Vector" d="M72.124 66.468L89.256 83.596L83.596 89.256L66.468 72.124C60.095 77.2329 52.168 80.0116 44 80C24.128 80 8 63.872 8 44C8 24.128 24.128 8 44 8C63.872 8 80 24.128 80 44C80.0116 52.168 77.2329 60.095 72.124 66.468ZM64.1 63.5C69.1764 58.2795 72.0115 51.2817 72 44C72 28.528 59.468 16 44 16C28.528 16 16 28.528 16 44C16 59.468 28.528 72 44 72C51.2817 72.0115 58.2795 69.1764 63.5 64.1L64.1 63.5ZM48.712 28.704C47.5325 29.2368 46.4999 30.0478 45.7028 31.0674C44.9056 32.087 44.3678 33.2848 44.1354 34.558C43.903 35.8312 43.9829 37.1418 44.3684 38.3773C44.7538 39.6128 45.4333 40.7364 46.3485 41.6515C47.2636 42.5667 48.3872 43.2462 49.6227 43.6316C50.8582 44.0171 52.1688 44.097 53.442 43.8646C54.7152 43.6322 55.913 43.0944 56.9326 42.2972C57.9522 41.5001 58.7632 40.4675 59.296 39.288C60.3472 42.7025 60.2254 46.3706 58.9499 49.7078C57.6745 53.045 55.3188 55.8594 52.2582 57.7024C49.1977 59.5454 45.6083 60.3111 42.0621 59.8774C38.5159 59.4438 35.2168 57.8357 32.6906 55.3094C30.1643 52.7832 28.5562 49.4841 28.1226 45.9379C27.6889 42.3917 28.4546 38.8023 30.2976 35.7418C32.1406 32.6812 34.955 30.3255 38.2922 29.0501C41.6294 27.7746 45.2975 27.6528 48.712 28.704Z" fill="#51B774"/>
</g>
</svg>
