<svg width="30" height="32" viewBox="0 0 30 32" fill="none" xmlns="http://www.w3.org/2000/svg">
<path fill-rule="evenodd" clip-rule="evenodd" d="M18.7712 0.479524C19.0906 0.953322 18.9288 1.57377 18.4097 1.86534C16.1805 3.11756 15.74 5.03659 15.8548 6.41409C17.6807 5.98102 20.4895 5.58746 23.1469 6.24731C24.8605 6.67281 26.527 7.54131 27.7908 9.11439C29.0466 10.6775 29.8378 12.8525 29.9806 15.7889C30.2964 22.2816 26.7027 27.4487 23.4688 30.7075C22.2458 31.94 20.6535 32.0974 19.2289 31.9581C18.5212 31.8888 17.8057 31.7428 17.1386 31.5943C16.9457 31.5513 16.7585 31.5086 16.5755 31.4668C16.1027 31.3589 15.6578 31.2573 15.213 31.1745C15.1359 31.1602 15.065 31.1537 14.9995 31.1537C14.4594 31.1537 13.8715 31.2369 13.2138 31.3564C13.027 31.3903 12.8287 31.4284 12.6242 31.4678C12.152 31.5586 11.6468 31.6558 11.1752 31.7219C9.80862 31.9136 8.11837 31.9458 6.83041 30.6888C3.49021 27.4288 -0.296452 22.2625 0.0183919 15.7889C0.159353 12.8906 0.931876 10.734 2.15977 9.17521C3.39578 7.60607 5.0293 6.72414 6.71966 6.2811C7.3907 6.10522 8.07252 5.99787 8.74673 5.94259C7.81992 5.41687 6.92222 4.85208 6.18419 4.29146C5.41739 3.70898 4.65543 3.00948 4.34914 2.26387L3.98195 1.37004L4.94002 0.987357C5.85311 0.62264 7.97721 -0.095444 10.2268 0.401182C11.741 0.735452 13.1641 1.58139 14.2846 3.16959C14.8212 2.07134 15.7453 0.996508 17.253 0.149568C17.7721 -0.142 18.4518 0.0057267 18.7712 0.479524ZM13.325 5.94903C12.3369 3.46144 10.9044 2.62348 9.70802 2.35936C8.8285 2.16519 7.936 2.24661 7.18352 2.41227C7.30483 2.51555 7.4419 2.62589 7.59593 2.74289C8.29519 3.27406 9.20309 3.83952 10.1794 4.38171C11.2545 4.9788 12.3714 5.52517 13.325 5.94903ZM3.95168 10.3513C3.04005 11.5086 2.3509 13.2537 2.22326 15.8783C1.94669 21.5648 5.27659 26.2229 8.44232 29.3127C8.93768 29.7961 9.62362 29.9012 10.8401 29.7306C11.2508 29.673 11.6538 29.5954 12.093 29.5107C12.3122 29.4685 12.5404 29.4245 12.783 29.3805C13.472 29.2553 14.2342 29.1391 14.9995 29.1391C15.2249 29.1391 15.4437 29.1614 15.6539 29.2005C16.15 29.2928 16.666 29.4107 17.1548 29.5223C17.3279 29.5618 17.4975 29.6005 17.6616 29.637C18.3135 29.7822 18.9102 29.9007 19.464 29.9549C20.5625 30.0623 21.2904 29.9018 21.8331 29.355C24.8755 26.2891 28.055 21.6208 27.7757 15.8783C27.6464 13.2193 26.9408 11.4631 26.0111 10.3058C25.0893 9.1585 23.8815 8.51755 22.5676 8.1913C19.8659 7.52043 16.793 8.20312 15.3559 8.65082L14.9995 8.76187L14.6431 8.65082C14.6075 8.63976 14.5708 8.62847 14.5328 8.61699C13.0224 8.16071 9.98126 7.52226 7.32876 8.21748C6.03907 8.55551 4.8552 9.20429 3.95168 10.3513Z" fill="#242427"/>
<path d="M9.70802 2.35936C10.9044 2.62348 12.3369 3.46144 13.325 5.94903C12.3714 5.52517 11.2545 4.9788 10.1794 4.38171C9.20309 3.83952 8.29519 3.27406 7.59593 2.74289C7.4419 2.62589 7.30483 2.51555 7.18352 2.41227C7.936 2.24661 8.8285 2.16519 9.70802 2.35936Z" fill="#242427"/>
</svg>
