<svg width="32" height="32" viewBox="0 0 32 32" fill="none" xmlns="http://www.w3.org/2000/svg">
<path fill-rule="evenodd" clip-rule="evenodd" d="M16 29.7143C20.3833 29.7143 24.2864 27.6579 26.797 24.4571C28.6246 22.1272 29.7143 19.1909 29.7143 16C29.7143 14.1376 29.343 12.3619 28.6705 10.7429C28.4749 10.2719 28.2538 9.81417 28.0089 9.37143C27.2596 8.01689 26.2878 6.80258 25.1429 5.7778C24.691 5.37341 24.2122 4.99854 23.7095 4.65621C21.5126 3.16019 18.8584 2.28571 16 2.28571C14.4244 2.28571 12.9108 2.55143 11.5016 3.04049C11.2452 3.1295 10.9922 3.22591 10.7429 3.32947C6.87846 4.93466 3.90663 8.25625 2.77873 12.3429C2.45739 13.5071 2.28571 14.7335 2.28571 16C2.28571 22.0091 6.15047 27.1155 11.53 28.9693C12.2635 29.2221 13.0251 29.4144 13.809 29.5402C14.5224 29.6548 15.2543 29.7143 16 29.7143ZM16 32C24.8366 32 32 24.8366 32 16C32 7.16344 24.8366 0 16 0C7.16344 0 0 7.16344 0 16C0 24.8366 7.16344 32 16 32Z" fill="white"/>
<path d="M10.7429 4.57143C11.1086 4.20571 10.8952 3.59107 10.7429 3.32947C6.87846 4.93466 3.90663 8.25625 2.77873 12.3429C3.14772 12.7238 3.97714 13.8057 4.34286 15.0857C4.70857 16.3657 5.71429 16.8381 6.17143 16.9143C7.00952 17.1429 8.59429 18.0571 8.22857 19.8857C7.86286 21.7143 8.53333 22.4762 8.91429 22.6286C9.6 23.0095 10.9714 24.0457 10.9714 25.1429C10.9714 26.24 11.3438 28.151 11.53 28.9693C12.2635 29.2221 13.0251 29.4144 13.809 29.5402C13.6751 28.909 14.1714 28.3429 14.6286 26.9714C15.0857 25.6 17.6 24.6857 18.2857 22.1714C18.9714 19.6571 16.9143 18.2857 15.7714 18.0571C14.6286 17.8286 13.4857 15.7714 12.3429 16C11.2 16.2286 11.4286 16 10.5143 15.7714C9.6 15.5429 8.91429 16.2286 8.22857 16.4571C7.54286 16.6857 6.4 15.3143 6.4 14.4C6.4 13.4857 8.68571 13.0286 9.14286 13.7143C9.50857 14.2629 9.90476 14.4 10.0571 14.4C10.3619 14.4762 10.88 14.3543 10.5143 13.2571C10.1486 12.16 10.9714 11.4286 11.4286 11.2C11.581 11.1238 11.8857 10.6514 11.8857 9.37143C11.8857 8.09143 14.1714 7.31429 15.3143 7.08571C15.5429 7.00952 15.7714 6.58286 14.8571 5.48571C13.9429 4.38857 13.4095 4.57143 13.2571 4.8C13.0286 5.40952 12.2514 6.53714 10.9714 6.17143C9.37143 5.71429 10.2857 5.02857 10.7429 4.57143Z" fill="white"/>
<path d="M29.7143 16C29.7143 14.1376 29.343 12.3619 28.6705 10.7429C28.4851 11.2 27.8857 11.9314 26.9714 11.2C25.8286 10.2857 26.2857 9.82857 23.7714 10.2857C21.2571 10.7429 21.2571 11.8857 20.5714 12.5714C19.8857 13.2571 18.7429 15.0857 20.5714 16.6857C22.0343 17.9657 23.7714 17.6762 24.4571 17.3714C24.9905 17.1429 26.0571 17.0971 26.0571 18.7429C26.0571 20.8 26.8511 20.5714 26.797 24.4571C28.6246 22.1272 29.7143 19.1909 29.7143 16Z" fill="white"/>
<path d="M25.1429 5.7778C24.9143 5.9852 24.4114 6.49143 24.2286 6.85714C24 7.31429 23.7714 7.54286 23.0857 7.77143C22.4 8 22.1714 8 22.4 9.14286C22.5829 10.0571 23.8476 9.82857 24.4571 9.6C24.7619 9.14286 25.4171 8.22857 25.6 8.22857C25.8286 8.22857 26.7429 8 26.9714 8.91429C27.2 9.82857 27.2177 10.0571 28.0089 9.37143C27.2596 8.01689 26.2878 6.80258 25.1429 5.7778Z" fill="white"/>
<path d="M16 2.28571C14.4244 2.28571 12.9108 2.55143 11.5016 3.04049C11.6743 3.17997 12.0978 3.43304 12.4099 3.32947C12.8 3.2 13.2571 3.2 13.7143 3.65714C14.1714 4.11429 14.6286 4.57143 15.5429 4.34286C16.2743 4.16 16.1524 2.89524 16 2.28571Z" fill="white"/>
<path d="M23.7095 4.65621C23.4254 4.55176 22.72 4.61714 22.1714 5.71429C21.4857 7.08571 24.1219 6.56506 24.2286 6.17143C24.3352 5.7778 24.1048 4.96955 23.7095 4.65621Z" fill="white"/>
</svg>
