<svg width="28" height="31" viewBox="0 0 28 31" fill="none" xmlns="http://www.w3.org/2000/svg">
<path d="M17.3647 29.557L17.6235 30.523L17.3647 29.557ZM4.80763 7.80763L5.51473 8.51473L4.80763 7.80763ZM20.5 5.74169L20.9172 6.65049L21.7148 6.28433L21.4553 5.44598L20.5 5.74169ZM14.1613 11.129C14.1613 10.5767 13.7136 10.129 13.1613 10.129C12.609 10.129 12.1613 10.5767 12.1613 11.129H14.1613ZM14.8121 19.7786L15.4629 20.5378L14.8121 19.7786ZM19.683 16.9205C20.1024 16.5611 20.1509 15.9298 19.7915 15.5105C19.4321 15.0912 18.8008 15.0426 18.3815 15.402L19.683 16.9205ZM26 17C26 19.6416 25.1284 22.2094 23.5202 24.3051L25.107 25.5227C26.9831 23.0776 28 20.0819 28 17H26ZM23.5202 24.3051C21.9121 26.4009 19.6574 27.9074 17.1058 28.5911L17.6235 30.523C20.6003 29.7253 23.2308 27.9677 25.107 25.5227L23.5202 24.3051ZM17.1058 28.5911C14.5542 29.2748 11.8483 29.0974 9.40781 28.0865L8.64245 29.9343C11.4897 31.1137 14.6466 31.3206 17.6235 30.523L17.1058 28.5911ZM9.40781 28.0865C6.96728 27.0757 4.92852 25.2877 3.60771 23L1.87566 24C3.4166 26.669 5.79516 28.7549 8.64245 29.9343L9.40781 28.0865ZM3.60771 23C2.28691 20.7123 1.75788 18.0527 2.10268 15.4337L0.11979 15.1726C-0.282475 18.2282 0.334723 21.331 1.87566 24L3.60771 23ZM2.10268 15.4337C2.44748 12.8147 3.64683 10.3826 5.51473 8.51473L4.10052 7.10052C1.9213 9.27974 0.522056 12.1171 0.11979 15.1726L2.10268 15.4337ZM5.51473 8.51473C7.38263 6.64684 9.81469 5.44748 12.4337 5.10268L12.1726 3.11979C9.11713 3.52206 6.27974 4.9213 4.10052 7.10052L5.51473 8.51473ZM12.4337 5.10268C15.0527 4.75788 17.7123 5.28691 20 6.60771L21 4.87566C18.331 3.33472 15.2282 2.71752 12.1726 3.11979L12.4337 5.10268ZM12.1613 11.129V19.0193H14.1613V11.129H12.1613ZM15.4629 20.5378L19.683 16.9205L18.3815 15.402L14.1613 19.0193L15.4629 20.5378ZM21.4553 5.44598L19.9875 0.704299L18.077 1.2957L19.5447 6.03739L21.4553 5.44598ZM20.0828 4.83288L15.5828 6.89883L16.4172 8.71643L20.9172 6.65049L20.0828 4.83288ZM12.1613 19.0193C12.1613 20.728 14.1655 21.6499 15.4629 20.5378L14.1613 19.0193V19.0193H12.1613Z" fill="#242427"/>
</svg>
