<svg width="32" height="32" viewBox="0 0 32 32" fill="none" xmlns="http://www.w3.org/2000/svg">
<circle cx="16" cy="16" r="16" fill="white"/>
<g clip-path="url(#clip0_12_342)">
<path d="M9.99992 10H21.9999C22.1767 10 22.3463 10.0702 22.4713 10.1953C22.5963 10.3203 22.6666 10.4899 22.6666 10.6667V21.3333C22.6666 21.5101 22.5963 21.6797 22.4713 21.8047C22.3463 21.9298 22.1767 22 21.9999 22H9.99992C9.82311 22 9.65354 21.9298 9.52851 21.8047C9.40349 21.6797 9.33325 21.5101 9.33325 21.3333V10.6667C9.33325 10.4899 9.40349 10.3203 9.52851 10.1953C9.65354 10.0702 9.82311 10 9.99992 10V10ZM21.3333 12.8253L16.0479 17.5587L10.6666 12.8107V20.6667H21.3333V12.8253ZM11.0073 11.3333L16.0406 15.7747L21.0013 11.3333H11.0073Z" fill="#171717"/>
</g>
<defs>
<clipPath id="clip0_12_342">
<rect width="16" height="16" fill="white" transform="translate(8 8)"/>
</clipPath>
</defs>
</svg>
