<svg width="32" height="32" viewBox="0 0 32 32" fill="none" xmlns="http://www.w3.org/2000/svg">
<circle cx="16" cy="16" r="16" fill="#51B774"/>
<g clip-path="url(#clip0_83_328)">
<path d="M9.99998 10H22C22.1768 10 22.3464 10.0702 22.4714 10.1953C22.5964 10.3203 22.6666 10.4899 22.6666 10.6667V21.3333C22.6666 21.5101 22.5964 21.6797 22.4714 21.8047C22.3464 21.9298 22.1768 22 22 22H9.99998C9.82317 22 9.6536 21.9298 9.52858 21.8047C9.40355 21.6797 9.33331 21.5101 9.33331 21.3333V10.6667C9.33331 10.4899 9.40355 10.3203 9.52858 10.1953C9.6536 10.0702 9.82317 10 9.99998 10ZM21.3333 12.8253L16.048 17.5587L10.6666 12.8107V20.6667H21.3333V12.8253ZM11.0073 11.3333L16.0406 15.7747L21.0013 11.3333H11.0073Z" fill="white"/>
</g>
<defs>
<clipPath id="clip0_83_328">
<rect width="16" height="16" fill="white" transform="translate(8 8)"/>
</clipPath>
</defs>
</svg>
