<svg width="40" height="40" viewBox="0 0 40 40" fill="none" xmlns="http://www.w3.org/2000/svg">
<path d="M17.5569 15.1568C17.5569 13.8002 18.6557 12.7015 20 12.7015C21.3443 12.7015 22.4431 13.8002 22.4431 15.1568C22.4431 16.5073 21.3443 17.5999 20 17.5999C18.6557 17.5999 17.5569 16.5011 17.5569 15.1568ZM33.75 9.19643V30.8036C33.75 32.4302 32.4302 33.75 30.8036 33.75H9.19643C7.56975 33.75 6.25 32.4302 6.25 30.8036V9.19643C6.25 7.56975 7.56975 6.25 9.19643 6.25H30.8036C32.4302 6.25 33.75 7.56975 33.75 9.19643ZM15.0218 15.1568C15.0218 17.8945 17.2561 20.1228 20 20.1228C22.7439 20.1228 24.9782 17.9007 24.9782 15.1568C24.9782 12.4068 22.7439 10.1786 20 10.1786C17.2561 10.1786 15.0218 12.4007 15.0218 15.1568ZM25.7333 20.7243C25.4509 20.1657 24.6713 19.6931 23.6401 20.5033C23.6401 20.5033 22.2467 21.6083 20 21.6083C17.7533 21.6083 16.3599 20.5033 16.3599 20.5033C15.3287 19.6931 14.5491 20.1657 14.2667 20.7243C13.7818 21.7126 14.3343 22.1791 15.5804 22.9955C16.6423 23.6769 18.1094 23.9286 19.0547 24.0268L18.2628 24.8186C17.1456 25.9235 16.0837 26.9978 15.3348 27.7467C14.2545 28.827 15.9916 30.558 17.0781 29.5022L20.0061 26.5619C21.1233 27.6791 22.1975 28.7533 22.9342 29.5022C24.0145 30.558 25.7578 28.8454 24.6897 27.7467L21.7617 24.8186L20.9637 24.0268C21.9152 23.9286 23.3638 23.6646 24.4135 22.9955C25.6657 22.1791 26.2121 21.7065 25.7333 20.7243Z" fill="#38383D"/>
</svg>
