<svg width="32" height="32" viewBox="0 0 32 32" fill="none" xmlns="http://www.w3.org/2000/svg">
<g id="Group">
<path id="Vector" d="M9.72131 27.7654L2.66664 29.3334L4.23464 22.2787C3.20202 20.3473 2.66334 18.1903 2.66664 16.0001C2.66664 8.63608 8.63598 2.66675 16 2.66675C23.364 2.66675 29.3333 8.63608 29.3333 16.0001C29.3333 23.3641 23.364 29.3334 16 29.3334C13.8098 29.3367 11.6528 28.798 9.72131 27.7654V27.7654ZM10.108 24.9481L10.9786 25.4147C12.5234 26.2403 14.2485 26.6704 16 26.6667C18.1096 26.6667 20.1719 26.0412 21.9261 24.8691C23.6802 23.697 25.0474 22.0311 25.8547 20.082C26.662 18.133 26.8733 15.9882 26.4617 13.9191C26.0501 11.85 25.0342 9.94937 23.5424 8.45761C22.0507 6.96585 20.1501 5.94995 18.0809 5.53837C16.0118 5.1268 13.8671 5.33803 11.918 6.14537C9.96894 6.9527 8.30303 8.31987 7.13097 10.074C5.9589 11.8281 5.33331 13.8904 5.33331 16.0001C5.33331 17.7787 5.76664 19.4907 6.58664 21.0214L7.05197 21.8921L6.17864 25.8214L10.108 24.9481V24.9481Z" fill="white"/>
</g>
</svg>
