<svg width="32" height="32" viewBox="0 0 32 32" fill="none" xmlns="http://www.w3.org/2000/svg">
<circle cx="16" cy="16" r="16" fill="#51B774"/>
<g clip-path="url(#clip0_83_323)">
<path d="M14.244 15.1213C14.8696 16.2203 15.7797 17.1304 16.8787 17.756L17.468 16.9307C17.5628 16.798 17.7029 16.7046 17.8619 16.6682C18.0208 16.6319 18.1876 16.655 18.3307 16.7333C19.2735 17.2486 20.3148 17.5585 21.386 17.6427C21.5532 17.6559 21.7092 17.7317 21.823 17.8549C21.9368 17.9781 22 18.1396 22 18.3073V21.282C22 21.4471 21.9388 21.6063 21.8282 21.7288C21.7177 21.8513 21.5655 21.9285 21.4013 21.9453C21.048 21.982 20.692 22 20.3333 22C14.6267 22 10 17.3733 10 11.6667C10 11.308 10.018 10.952 10.0547 10.5987C10.0715 10.4345 10.1487 10.2823 10.2712 10.1718C10.3937 10.0612 10.5529 9.99996 10.718 10H13.6927C13.8604 9.99998 14.0219 10.0632 14.1451 10.177C14.2683 10.2908 14.3441 10.4468 14.3573 10.614C14.4415 11.6852 14.7514 12.7265 15.2667 13.6693C15.345 13.8124 15.3681 13.9792 15.3318 14.1381C15.2954 14.2971 15.202 14.4372 15.0693 14.532L14.244 15.1213ZM12.5627 14.6833L13.8293 13.7787C13.4699 13.0027 13.2236 12.1792 13.098 11.3333H11.34C11.336 11.444 11.334 11.5553 11.334 11.6667C11.3333 16.6373 15.3627 20.6667 20.3333 20.6667C20.4447 20.6667 20.556 20.6647 20.6667 20.66V18.902C19.8208 18.7764 18.9973 18.5301 18.2213 18.1707L17.3167 19.4373C16.9524 19.2958 16.5987 19.1287 16.258 18.9373L16.2193 18.9153C14.9117 18.1711 13.8289 17.0883 13.0847 15.7807L13.0627 15.742C12.8713 15.4013 12.7042 15.0476 12.5627 14.6833Z" fill="white"/>
</g>
<defs>
<clipPath id="clip0_83_323">
<rect width="16" height="16" fill="white" transform="translate(8 8)"/>
</clipPath>
</defs>
</svg>
