<svg width="32" height="32" viewBox="0 0 32 32" fill="none" xmlns="http://www.w3.org/2000/svg">
<g clip-path="url(#clip0_12_347)">
<circle cx="16" cy="16" r="16" fill="white"/>
<g clip-path="url(#clip1_12_347)">
<rect x="8" y="8" width="16" height="16" fill="white"/>
<path fill-rule="evenodd" clip-rule="evenodd" d="M21.0113 10.0783C21.176 10.009 21.3563 9.98506 21.5335 10.0091C21.7106 10.0331 21.878 10.1041 22.0184 10.2148C22.1587 10.3254 22.2669 10.4717 22.3315 10.6384C22.3961 10.805 22.4149 10.9859 22.3859 11.1623L20.8739 20.3336C20.7273 21.2183 19.7566 21.7256 18.9453 21.285C18.2666 20.9163 17.2586 20.3483 16.3519 19.7556C15.8986 19.459 14.5099 18.509 14.6806 17.833C14.8273 17.255 17.1606 15.083 18.4939 13.7916C19.0173 13.2843 18.7786 12.9916 18.1606 13.4583C16.6259 14.617 14.1619 16.379 13.3473 16.875C12.6286 17.3123 12.2539 17.387 11.8059 17.3123C10.9886 17.1763 10.2306 16.9656 9.61193 16.709C8.77593 16.3623 8.81659 15.213 9.61126 14.8783L21.0113 10.0783Z" fill="#171717"/>
</g>
</g>
<defs>
<clipPath id="clip0_12_347">
<rect width="32" height="32" fill="white"/>
</clipPath>
<clipPath id="clip1_12_347">
<rect width="16" height="16" fill="white" transform="translate(8 8)"/>
</clipPath>
</defs>
</svg>
