<svg width="40" height="40" viewBox="0 0 40 40" fill="none" xmlns="http://www.w3.org/2000/svg">
<path d="M8.175 8.175C6.25 10.1183 6.25 13.2258 6.25 19.45V20.55C6.25 26.765 6.25 29.8725 8.175 31.825C10.1183 33.75 13.2258 33.75 19.45 33.75H20.55C26.765 33.75 29.8725 33.75 31.825 31.825C33.75 29.8817 33.75 26.7742 33.75 20.55V19.45C33.75 13.235 33.75 10.1275 31.825 8.175C29.8817 6.25 26.7742 6.25 20.55 6.25H19.45C13.235 6.25 10.1275 6.25 8.175 8.175ZM10.8883 14.6192H14.0417C14.1425 19.8625 16.4525 22.0808 18.2858 22.5392V14.6192H21.2467V19.1383C23.0525 18.9458 24.9592 16.8833 25.6008 14.61H28.5525C28.3119 15.7868 27.8312 16.9014 27.1404 17.884C26.4495 18.8666 25.5634 19.6962 24.5375 20.3208C25.6825 20.8905 26.6936 21.6965 27.5042 22.6856C28.3148 23.6748 28.9064 24.8246 29.24 26.0592H25.9858C25.2892 23.8867 23.5475 22.2 21.2467 21.9708V26.0592H20.88C14.61 26.0592 11.035 21.7692 10.8883 14.6192Z" fill="#38383D"/>
</svg>
