<svg width="32" height="32" viewBox="0 0 32 32" fill="none" xmlns="http://www.w3.org/2000/svg">
<g clip-path="url(#clip0_12_356)">
<circle cx="16" cy="16" r="16" fill="white"/>
<path d="M20.7005 11.2733C20.0892 10.656 19.3612 10.1666 18.5589 9.83353C17.7565 9.50046 16.8959 9.33041 16.0272 9.33329C12.3872 9.33329 9.42052 12.3 9.42052 15.94C9.42052 17.1066 9.72719 18.24 10.3005 19.24L9.36719 22.6666L12.8672 21.7466C13.8339 22.2733 14.9205 22.5533 16.0272 22.5533C19.6672 22.5533 22.6339 19.5866 22.6339 15.9466C22.6339 14.18 21.9472 12.52 20.7005 11.2733ZM16.0272 21.4333C15.0405 21.4333 14.0739 21.1666 13.2272 20.6666L13.0272 20.5466L10.9472 21.0933L11.5005 19.0666L11.3672 18.86C10.8189 17.9847 10.5278 16.9728 10.5272 15.94C10.5272 12.9133 12.9939 10.4466 16.0205 10.4466C17.4872 10.4466 18.8672 11.02 19.9005 12.06C20.4123 12.5692 20.8178 13.175 21.0936 13.8422C21.3694 14.5094 21.51 15.2247 21.5072 15.9466C21.5205 18.9733 19.0539 21.4333 16.0272 21.4333ZM19.0405 17.3266C18.8739 17.2466 18.0605 16.8466 17.9139 16.7866C17.7605 16.7333 17.6539 16.7066 17.5405 16.8666C17.4272 17.0333 17.1139 17.4066 17.0205 17.5133C16.9272 17.6266 16.8272 17.64 16.6605 17.5533C16.4939 17.4733 15.9605 17.2933 15.3339 16.7333C14.8405 16.2933 14.5139 15.7533 14.4139 15.5866C14.3205 15.42 14.4005 15.3333 14.4872 15.2466C14.5605 15.1733 14.6539 15.0533 14.7339 14.96C14.8139 14.8666 14.8472 14.7933 14.9005 14.6866C14.9539 14.5733 14.9272 14.48 14.8872 14.4C14.8472 14.32 14.5139 13.5066 14.3805 13.1733C14.2472 12.8533 14.1072 12.8933 14.0072 12.8866H13.6872C13.5739 12.8866 13.4005 12.9266 13.2472 13.0933C13.1005 13.26 12.6739 13.66 12.6739 14.4733C12.6739 15.2866 13.2672 16.0733 13.3472 16.18C13.4272 16.2933 14.5139 17.96 16.1672 18.6733C16.5605 18.8466 16.8672 18.9466 17.1072 19.02C17.5005 19.1466 17.8605 19.1266 18.1472 19.0866C18.4672 19.04 19.1272 18.6866 19.2605 18.3C19.4005 17.9133 19.4005 17.5866 19.3539 17.5133C19.3072 17.44 19.2072 17.4066 19.0405 17.3266Z" fill="#171717"/>
</g>
<defs>
<clipPath id="clip0_12_356">
<rect width="32" height="32" fill="white"/>
</clipPath>
</defs>
</svg>
