<svg width="40" height="40" viewBox="0 0 40 40" fill="none" xmlns="http://www.w3.org/2000/svg">
<path d="M17.25 24.8214L26.0081 20L17.25 15.1786V24.8214ZM36.7575 12.2375C36.9769 12.9929 37.1287 14.0054 37.23 15.2911C37.3481 16.5768 37.3988 17.6857 37.3988 18.65L37.5 20C37.5 23.5196 37.23 26.1071 36.7575 27.7625C36.3356 29.2089 35.3569 30.1411 33.8381 30.5429C33.045 30.7518 31.5938 30.8964 29.3663 30.9929C27.1725 31.1054 25.1644 31.1536 23.3081 31.1536L20.625 31.25C13.5544 31.25 9.15 30.9929 7.41188 30.5429C5.89313 30.1411 4.91438 29.2089 4.4925 27.7625C4.27313 27.0071 4.12125 25.9946 4.02 24.7089C3.90188 23.4232 3.85125 22.3143 3.85125 21.35L3.75 20C3.75 16.4804 4.02 13.8929 4.4925 12.2375C4.91438 10.7911 5.89313 9.85893 7.41188 9.45714C8.205 9.24821 9.65625 9.10357 11.8837 9.00714C14.0775 8.89464 16.0856 8.84643 17.9419 8.84643L20.625 8.75C27.6956 8.75 32.1 9.00714 33.8381 9.45714C35.3569 9.85893 36.3356 10.7911 36.7575 12.2375Z" fill="#38383D"/>
</svg>
